<svg xmlns="http://www.w3.org/2000/svg" xmlns:xlink="http://www.w3.org/1999/xlink" viewBox="-1333 288 156.824 87.108"><defs><style>.a{fill:none;}.b{clip-path:url(#a);}.c{fill:#63707a;}</style><clipPath id="a"><path class="a" d="M0,0H156.824V-87.108H0Z" transform="translate(0 87.108)"/></clipPath></defs><g transform="translate(-1745 268)"><g class="b" transform="translate(412 20)"><path class="c" d="M0,0V18.645H10.681v-.878H.933V0ZM-17.518,0V18.645H-7.1v-.878h-9.483V9.536H-8.3V8.683h-8.285V.878H-7.1V0Zm-17.9.878h5.648V18.645h.931V.878h5.7V0h-12.28Zm-16.5,8.444c0-4.927,1.065-8.656,5.7-8.656,4.661,0,5.753,3.729,5.753,8.656s-1.092,8.658-5.753,8.658c-4.636,0-5.7-3.73-5.7-8.658m-.932,0c0,5.275,1.2,9.536,6.633,9.536s6.685-4.261,6.685-9.536S-40.78-.213-46.213-.213s-6.633,4.262-6.633,9.535M-60.547,0V8.683h-10.1V0h-.932V18.645h.932V9.536h10.1v9.109h.932V0Z" transform="translate(146.143 0.213)"/></g><path class="c" d="M0,0V18.645H11.215V16.728H2.131V10.041h7.912V8.151H2.131V1.918h9.084V0ZM-9.821,0V15L-19.348,0h-2.185V18.645h2.078V3.676l9.528,14.969h2.211V0Zm-39.26,0V18.645h11.214V16.728h-9.084V10.041h7.912V8.151h-7.912V1.918h9.084V0ZM-64.29,0V18.645h11.267V16.728h-9.135V0Zm-7.315,0-8.87,10.574V0h-2.211V18.645h2.265v-5.46l3.462-3.969,5.728,9.429h2.5L-75.307,7.618-69.154,0Zm40.241,18.661h2.183V.02h-2.183Z" transform="translate(494.686 65.597)"/><g class="b" transform="translate(412 20)"><path class="c" d="M0,0H-8.842V-16.062h-2.9V2.584H0ZM-17.629-16.062H-29.243V2.584h11.614V0h-8.71V-5.673H-18.8V-8.231h-7.538v-5.22h8.71ZM-55.617,2.584V-16.062h-2.876V-2.371l-8.524-13.691h-3.009V2.584h2.876v-13.8l8.551,13.8ZM-42.241,0H-45.81V-13.451h3.515c3.942,0,4.449,2.716,4.449,6.765,0,3.943-.4,6.686-4.4,6.686m-6.394-16.062V2.584h6.154c6.339,0,7.539-3.6,7.539-9.27,0-4.848-.906-9.376-7.406-9.376Zm-28.457.021h-2.93V2.6h2.93ZM-96.361-7.564v-5.967h3.915c2.344,0,3.543,1.092,3.543,3.063,0,2.13-1.6,2.9-3.809,2.9Zm10.308-3.011c0-3.063-1.412-5.461-6.1-5.461h-7.085V2.584h2.9V-5.008h3.2L-88.9,2.584h3.143l-4.289-7.858c1.2-.186,4-1.3,4-5.3" transform="translate(156.824 84.311)"/><path class="c" d="M0,0H2.875c0-3.327-2.609-5.857-6.841-5.857-6.55,0-7.508,4.952-7.508,9.558,0,5.637,1.765,9.455,7.147,9.5v.012h.481c4.1,0,6.91-2.161,6.91-6.46V3.682L-3.6,3.675v2.5H.332V6.8c0,2.6-1.427,3.829-3.937,3.829l-.626-.005,0,0c-3.354,0-4.34-2.848-4.34-6.922,0-3.967.773-6.975,4.607-6.975C-1.517-3.274,0-1.6,0,0" transform="translate(48.657 73.893)"/><path class="c" d="M0,0C0,1.652.665,5.86,6.473,5.86c4.5,0,6.259-2.423,6.259-5.433,0-3.169-2.158-4.1-4.315-4.714-2.77-.8-6.286-.96-6.286-4.1,0-1.172.773-3.49,4.236-3.49,3.942,0,4.341,2.771,4.341,4.21h1.518c0-1.759-.452-5.541-5.859-5.541C1.651-13.211.64-10.121.64-8.39c0,4.422,4.182,4.635,6.925,5.354,1.811.453,3.649,1.172,3.649,3.6,0,1.7-.9,3.97-4.768,3.97C2.5,4.529,1.518,1.731,1.518,0ZM-11.214-11.16l3.2,9.27h-6.392ZM-5.407,5.647h1.545L-10.415-13h-1.6L-18.566,5.647h1.546l2.184-6.179H-7.59ZM-28.892-11.639c4.209,0,5.355,3.17,5.355,8.016,0,4.8-1.092,7.912-5.355,7.912h-4.531V-11.639ZM-34.914,5.647h5.943c5.328,0,6.926-3.622,6.926-9.27C-22.045-8.9-23.483-13-28.918-13h-6Z" transform="translate(92.678 35.964)"/></g></g></svg>