<svg xmlns="http://www.w3.org/2000/svg" viewBox="-331 -1153.583 99.657 55.354"><defs><style>.a{fill:#fff;}.b{fill:none;}.c{fill:#63707a;}</style></defs><g transform="translate(-539.409 -2936.736)"><path class="a" d="M-26.092-.078V11.771H-19.3v-.558H-25.5V-.078Zm-11.132,0V11.771h6.618v-.558h-6.026V5.982h5.265V5.44h-5.265V.48h6.026V-.078ZM-48.6.48h3.589v11.29h.592V.48H-40.8V-.078h-7.8ZM-59.081,5.846c0-3.131.677-5.5,3.623-5.5,2.962,0,3.656,2.37,3.656,5.5s-.694,5.5-3.656,5.5c-2.946,0-3.623-2.37-3.623-5.5m-.592,0c0,3.352.762,6.06,4.215,6.06S-51.21,9.2-51.21,5.846s-.8-6.059-4.248-6.059S-59.673,2.5-59.673,5.846M-64.567-.078V5.44h-6.416V-.078h-.592V11.771h.592V5.982h6.416v5.788h.592V-.078Z" transform="translate(327.369 1783.366)"/><path class="b" d="M0-31.754H99.656V-87.108H0Z" transform="translate(208.409 1870.261)"/><path class="c" d="M-30.142,0V11.848h7.127V10.63h-5.773V6.381h5.028V5.18h-5.028V1.219h5.773V0Zm-6.241,0V9.53L-42.437,0h-1.388V11.848h1.32V2.336l6.055,9.512h1.405V0ZM-61.331,0V11.848h7.126V10.63h-5.773V6.381h5.028V5.18h-5.028V1.219h5.773V0ZM-71,0V11.848h7.16V10.63h-5.8V0Zm-4.648,0-5.637,6.719V0h-1.405V11.848h1.439V8.379l2.2-2.522,3.64,5.992h1.591L-78,4.841-74.087,0Zm25.572,11.858h1.387V.013h-1.387Z" transform="translate(291.095 1812.129)"/><path class="a" d="M-36.176-5.855h-5.619V-16.062H-43.64V-4.213h7.464Zm-11.2-10.207h-7.38V-4.213h7.38V-5.855h-5.535V-9.46h4.79v-1.626h-4.79V-14.4h5.535ZM-71.518-4.213V-16.062h-1.828v8.7l-5.417-8.7h-1.912V-4.213h1.828v-8.768l5.434,8.768Zm8.5-1.642h-2.268V-14.4h2.234c2.505,0,2.827,1.726,2.827,4.3,0,2.506-.254,4.249-2.793,4.249m-4.063-10.207V-4.213h3.911c4.028,0,4.791-2.285,4.791-5.891,0-3.081-.576-5.958-4.706-5.958Zm-18.083.013h-1.862V-4.2h1.862ZM-97.41-10.662v-3.792h2.488c1.49,0,2.251.694,2.251,1.946,0,1.354-1.015,1.845-2.42,1.845Zm6.55-1.913c0-1.946-.9-3.47-3.876-3.47h-4.5V-4.213h1.845V-9.038h2.031l2.692,4.824h2L-93.4-9.207a3.111,3.111,0,0,0,2.539-3.369" transform="translate(344.241 1842.585)"/><path class="a" d="M-4.183-2.135h1.827c0-2.114-1.658-3.722-4.347-3.722-4.162,0-4.771,3.147-4.771,6.074,0,3.582,1.122,6.008,4.542,6.038v.008h.306c2.608,0,4.391-1.373,4.391-4.105V.2L-6.472.2V1.787h2.5v.4a2.2,2.2,0,0,1-2.5,2.433l-.4,0v0c-2.131,0-2.758-1.81-2.758-4.4,0-2.521.491-4.432,2.928-4.432a2.317,2.317,0,0,1,2.52,2.081" transform="translate(243.511 1832.245)"/><path class="a" d="M-12.727-4.816c0,1.05.423,3.724,4.113,3.724,2.861,0,3.977-1.54,3.977-3.452,0-2.014-1.371-2.607-2.742-3-1.76-.508-3.995-.61-3.995-2.607,0-.745.491-2.218,2.692-2.218A2.435,2.435,0,0,1-5.923-9.69h.965c0-1.118-.287-3.521-3.723-3.521-3,0-3.639,1.964-3.639,3.064,0,2.81,2.658,2.945,4.4,3.4C-6.769-6.457-5.6-6-5.6-4.461c0,1.083-.575,2.523-3.03,2.523a2.817,2.817,0,0,1-3.132-2.878Zm-7.126-7.092,2.032,5.891h-4.062Zm3.69,10.68h.982l-4.164-11.848h-1.015L-24.525-1.227h.982l1.388-3.927h4.6ZM-31.087-12.212c2.675,0,3.4,2.014,3.4,5.094,0,3.048-.694,5.028-3.4,5.028h-2.879V-12.212ZM-34.914-1.227h3.777c3.386,0,4.4-2.3,4.4-5.891,0-3.35-.914-5.958-4.368-5.958h-3.81Z" transform="translate(280.03 1810.823)"/><path class="b" d="M0-31.754H99.656V-87.108H0Z" transform="translate(208.409 1870.261)"/><path class="b" d="M0-31.754H99.656V-87.108H0Z" transform="translate(208.409 1870.261)"/><path class="a" d="M-30.142,0V11.848h7.127V10.63h-5.773V6.381h5.028V5.18h-5.028V1.219h5.773V0Zm-6.241,0V9.53L-42.437,0h-1.388V11.848h1.32V2.336l6.055,9.512h1.405V0ZM-61.331,0V11.848h7.126V10.63h-5.773V6.381h5.028V5.18h-5.028V1.219h5.773V0ZM-71,0V11.848h7.16V10.63h-5.8V0Zm-4.648,0-5.637,6.719V0h-1.405V11.848h1.439V8.379l2.2-2.522,3.64,5.992h1.591L-78,4.841-74.087,0Zm25.572,11.858h1.387V.013h-1.387Z" transform="translate(291.095 1812.129)"/></g></svg>