<svg id="Gruppe_134" data-name="Gruppe 134" xmlns="http://www.w3.org/2000/svg" xmlns:xlink="http://www.w3.org/1999/xlink" viewBox="-1121.7 -2108.5 175.687 129.541">
  <defs>
    <style>
      .cls-1, .cls-3 {
        fill: #6fa895;
      }

      .cls-1 {
        stroke: rgba(0,0,0,0);
      }

      .cls-2 {
        fill: #fff;
        stroke: #95989a;
      }

      .cls-4 {
        stroke: none;
      }

      .cls-5 {
        clip-path: url(#clip);
        fill: none;
      }
    </style>
    <clipPath id="clip">
      <use xlink:href="#fill"/>
    </clipPath>
  </defs>
  <path id="Pfad_183" data-name="Pfad 183" class="cls-1" d="M3.14-1.94,9.88-12.02V-14H.94v1.96H7.46L.8-1.94V0h9.22V-1.94ZM11.88,0h7.64V-1.78H16.78V-12.2h2.74V-14H11.88v1.8h2.7V-1.78h-2.7ZM29.7-2.74l3.52-8.28V0H35.4V-14H32.38L28.94-5.88,25.48-14h-3V0h2.16V-11.02l3.52,8.28Zm16.72,0,3.52-8.28V0h2.18V-14H49.1L45.66-5.88,42.2-14h-3V0h2.16V-11.02l3.52,8.28ZM64.64-14H55.92V0h8.72V-1.94H58.1V-6.2h5.66V-8.12H58.1v-3.92h6.54ZM77.58-9.88c0-2.3-1.06-4.1-4.58-4.1H67.68V0h2.18V-5.7h2.4L75.44,0H77.8L74.58-5.9A3.676,3.676,0,0,0,77.58-9.88ZM69.84-7.62V-12.1h2.94c1.76,0,2.66.82,2.66,2.3,0,1.6-1.2,2.18-2.86,2.18ZM11.8,12.12c0-2.3-1.06-4.1-4.58-4.1H1.9V22H4.08V16.3h2.4L9.66,22h2.36L8.8,16.1A3.676,3.676,0,0,0,11.8,12.12ZM4.06,14.38V9.9H7c1.76,0,2.66.82,2.66,2.3,0,1.6-1.2,2.18-2.86,2.18Zm15.8,5.84c-2.54,0-3.36-1.88-3.36-5.22,0-3.32.82-5.22,3.36-5.22S23.2,11.68,23.2,15C23.2,18.34,22.4,20.22,19.86,20.22Zm0,1.94c4.64,0,5.52-3.48,5.52-7.16s-.88-7.16-5.52-7.16S14.32,11.32,14.32,15,15.22,22.16,19.86,22.16ZM33.3,20.22c-2.54,0-3.36-1.88-3.36-5.22,0-3.32.82-5.22,3.36-5.22s3.34,1.9,3.34,5.22C36.64,18.34,35.84,20.22,33.3,20.22Zm0,1.94c4.64,0,5.52-3.48,5.52-7.16s-.88-7.16-5.52-7.16S27.76,11.32,27.76,15,28.66,22.16,33.3,22.16Zm15.84-2.9,3.52-8.28V22h2.18V8H51.82l-3.44,8.12L44.92,8h-3V22h2.16V10.98l3.52,8.28Z" transform="translate(-1122 -2094)"/>
  <g id="Gruppe_133" data-name="Gruppe 133" transform="translate(-18.841 -1824.163)">
    <g id="Rechteck_222" data-name="Rechteck 222" class="cls-2" transform="translate(-991.154 -263)">
      <rect id="fill" class="cls-4" width="0.867" height="0.217"/>
      <path class="cls-5" d="M0,-0.28317634761333466h0.8672946095466614M0.5,0v0.21682365238666534M0.8672946095466614,0.5h-0.8672946095466614M0.3672946095466614,0.21682365238666534v-0.21682365238666534"/>
    </g>
    <path id="Pfad_181" data-name="Pfad 181" class="cls-3" d="M-114.695-156.462v-42.827h-4.833v34.445l-21.9-34.445h-5.017v42.827h4.772v-34.384l21.9,34.384Zm12.847-30.835c0,6.546,2.019,12.481,9.85,12.481s9.789-5.935,9.789-12.481c0-6.485-1.958-12.481-9.789-12.481s-9.85,6-9.85,12.481m3.549,0c0-5.384,1.04-9.361,6.3-9.361s6.3,3.977,6.3,9.361-1.04,9.361-6.3,9.361-6.3-3.977-6.3-9.361" transform="translate(-953.552 -29.891)"/>
    <path id="Pfad_182" data-name="Pfad 182" class="cls-3" d="M-319.031-212.366c-.267,9.086-3.608,12.026-14.03,12.026-5.345,0-10.957-.534-21.914-2.272-10.556-1.737-16.035-2.271-20.979-2.271-10.423,0-17.638,2-25.121,7.216,4.81-8.018,9.621-11.358,18.974-13.629,7.082-1.47,9.487-1.871,18.306-3.207,24.586-3.608,34.341-6.681,40.621-12.694a21.442,21.442,0,0,0,6.681-15.634,22.473,22.473,0,0,0-6.547-15.767c-8.686-8.552-22.315-12.56-43.294-12.56-24.987,0-41.022,10.155-41.022,25.789,0,8.552,6.681,15.5,14.832,15.5a14.521,14.521,0,0,0,14.832-14.3A14.663,14.663,0,0,0-392.924-259a27.9,27.9,0,0,0-3.341.134c-.668.134-1.2-.134-1.2-.8,0-3.341,14.3-8.552,22.315-8.552,10.69,0,17.371,7.75,17.371,20.311,0,17.1-10.021,23.918-24.186,31.4-11.091,5.88-25.388,13.5-25.388,36.345,0,4.811,1.2,7.75,3.073,7.75s2.94-1.2,2.94-3.608a12.86,12.86,0,0,0-1.2-5.078,10.687,10.687,0,0,1-.935-4.276c0-3.207,1.737-4.944,4.944-4.944,2.806,0,5.612,1.336,11.358,5.612,12.159,8.953,21.914,12.427,35.143,12.427,31,0,35.143-20.578,35.143-33.806,0-2.405,0-4.543-.134-6.28Z" transform="translate(-610.681 17.483)"/>
  </g>
</svg>
