<svg id="Gruppe_132" data-name="Gruppe 132" xmlns="http://www.w3.org/2000/svg" viewBox="-1115.7 -2290.5 176.741 119.561">
  <defs>
    <style>
      .cls-1, .cls-3 {
        fill: #4b6e83;
      }

      .cls-2 {
        fill: none;
      }

      .cls-3 {
        stroke: rgba(0,0,0,0);
      }
    </style>
  </defs>
  <path id="Pfad_177" data-name="Pfad 177" class="cls-1" d="M-6.278-51.191c1.467-.133,8.134-.533,9.467-.533,3.334,0,3.867,1.2,3.867,8.134V21.746c0,6.267-.933,7.2-7.6,7.2H-8.012v2.267h70.8V28.946h-8c-6.533,0-7.6-.934-7.6-7.2V-65.325H43.724a138.327,138.327,0,0,1-50,12.134Z" transform="translate(-1001.751 -2202.152)"/>
  <path id="Pfad_178" data-name="Pfad 178" class="cls-1" d="M-114.762-156.554V-199.29h-4.823v34.372l-21.857-34.372h-5.006v42.737h4.762v-34.311l21.857,34.311Zm12.82-30.77c0,6.533,2.015,12.455,9.829,12.455s9.768-5.922,9.768-12.455c0-6.471-1.954-12.455-9.768-12.455s-9.829,5.983-9.829,12.455m3.541,0c0-5.373,1.038-9.341,6.289-9.341s6.288,3.968,6.288,9.341-1.038,9.341-6.288,9.341-6.289-3.968-6.289-9.341" transform="translate(-943.836 -2043.342)"/>
  <path id="Pfad_179" data-name="Pfad 179" class="cls-2" d="M0-446.181H151.325v96.538H0Z" transform="translate(-1090.284 -1821.296)"/>
  <path id="Pfad_180" data-name="Pfad 180" class="cls-3" d="M3.14-1.94,9.88-12.02V-14H.94v1.96H7.46L.8-1.94V0h9.22V-1.94ZM11.88,0h7.64V-1.78H16.78V-12.2h2.74V-14H11.88v1.8h2.7V-1.78h-2.7ZM29.7-2.74l3.52-8.28V0H35.4V-14H32.38L28.94-5.88,25.48-14h-3V0h2.16V-11.02l3.52,8.28Zm16.72,0,3.52-8.28V0h2.18V-14H49.1L45.66-5.88,42.2-14h-3V0h2.16V-11.02l3.52,8.28ZM64.64-14H55.92V0h8.72V-1.94H58.1V-6.2h5.66V-8.12H58.1v-3.92h6.54ZM77.58-9.88c0-2.3-1.06-4.1-4.58-4.1H67.68V0h2.18V-5.7h2.4L75.44,0H77.8L74.58-5.9A3.676,3.676,0,0,0,77.58-9.88ZM69.84-7.62V-12.1h2.94c1.76,0,2.66.82,2.66,2.3,0,1.6-1.2,2.18-2.86,2.18ZM11.8,12.12c0-2.3-1.06-4.1-4.58-4.1H1.9V22H4.08V16.3h2.4L9.66,22h2.36L8.8,16.1A3.676,3.676,0,0,0,11.8,12.12ZM4.06,14.38V9.9H7c1.76,0,2.66.82,2.66,2.3,0,1.6-1.2,2.18-2.86,2.18Zm15.8,5.84c-2.54,0-3.36-1.88-3.36-5.22,0-3.32.82-5.22,3.36-5.22S23.2,11.68,23.2,15C23.2,18.34,22.4,20.22,19.86,20.22Zm0,1.94c4.64,0,5.52-3.48,5.52-7.16s-.88-7.16-5.52-7.16S14.32,11.32,14.32,15,15.22,22.16,19.86,22.16ZM33.3,20.22c-2.54,0-3.36-1.88-3.36-5.22,0-3.32.82-5.22,3.36-5.22s3.34,1.9,3.34,5.22C36.64,18.34,35.84,20.22,33.3,20.22Zm0,1.94c4.64,0,5.52-3.48,5.52-7.16s-.88-7.16-5.52-7.16S27.76,11.32,27.76,15,28.66,22.16,33.3,22.16Zm15.84-2.9,3.52-8.28V22h2.18V8H51.82l-3.44,8.12L44.92,8h-3V22h2.16V10.98l3.52,8.28Z" transform="translate(-1116 -2276)"/>
</svg>
